<svg width="512" height="512" viewBox="0 0 512 512" xmlns="http://www.w3.org/2000/svg" role="img" aria-label="AmaBaKinaata logo">
  <defs>
    <radialGradient id="glow" cx="50%" cy="35%" r="70%">
      <stop offset="0%" stop-color="#FCE7C6" />
      <stop offset="45%" stop-color="#F97316" stop-opacity="0.7" />
      <stop offset="100%" stop-color="#0F172A" />
    </radialGradient>
    <linearGradient id="beam" x1="0%" y1="0%" x2="100%" y2="100%">
      <stop offset="0%" stop-color="#F97316" />
      <stop offset="100%" stop-color="#14B8A6" />
    </linearGradient>
  </defs>
  <rect width="512" height="512" rx="120" fill="#0B1220" />
  <rect width="512" height="512" rx="120" fill="url(#glow)" opacity="0.65" />
  <path d="M256 128c-78 0-120 52-120 118 0 96 89 140 120 205 31-65 120-109 120-205 0-66-42-118-120-118zm0 182c-38 0-64-27-64-64 0-36 26-62 64-62s64 26 64 62c0 37-26 64-64 64z" fill="url(#beam)" />
  <circle cx="256" cy="246" r="48" fill="#0B1220" opacity="0.25" />
</svg>
