<svg xmlns="http://www.w3.org/2000/svg" viewBox="0 0 64 64">
  <rect width="64" height="64" rx="14" fill="#e30613"/>
  <path
    d="M4 15C12 6 24 2 36 2h24v18C51 12 32 16 18 27 10 33 6 43 4 53Z"
    fill="#fff"
  />
  <path
    d="M4 45c5.5-12 15-21 28-26 12.3-4.6 24-4.5 28-3.8V62H4Z"
    fill="#e30613"
  />
  <path
    d="M26 19c-2.2 0-3.6 1-3.6 3.1 0 1.8 1.2 2.9 3 2.9 1.4 0 2.6-.6 3.4-1.7v21.3h6.1V19Zm4.8 2.8c-.5.7-1.3 1-2.2 1-.9 0-1.5-.4-1.5-1.3 0-.8.6-1.3 1.6-1.3.8 0 1.5.5 2.1 1.3Z"
    fill="#fff"
  />
</svg>
